<svg xmlns="http://www.w3.org/2000/svg" viewBox="0 0 178 108"><defs><style>.cls-1,.cls-3{fill:#fff;}.cls-1,.cls-2,.cls-3{stroke:#000;stroke-miterlimit:10;}.cls-1{stroke-width:7px;}.cls-2,.cls-3{stroke-width:5px;}</style></defs><g id="Layer_2" data-name="Layer 2"><g id="Layer_1-2" data-name="Layer 1"><rect class="cls-1" x="3.5" y="3.5" width="171" height="101"/><path class="cls-2" d="M88.13,104.65c-26.33,0-52.65-.08-79,.09-4.44,0-6.07-1-6-5.83q.33-44.73,0-89.47c0-4.81,1.64-5.81,6.05-5.8q79.47.18,159,0c4.43,0,6.08,1,6,5.81q-.32,44.73,0,89.47c0,4.81-1.62,5.84-6.05,5.81C141.45,104.57,114.79,104.65,88.13,104.65ZM8.4,10.48v89H168.76V10.79c-1.29.65-2,1-2.73,1.39C141.42,26.41,116.78,40.6,92.24,55c-2.66,1.56-4.58,1.66-7.22,0-6.2-3.88-12.62-7.4-19-11.06ZM16,8.73a30.29,30.29,0,0,0,2.49,2c22.42,13,44.81,26.09,67.35,38.91,1.53.88,4.53.61,6.16-.32,22-12.51,43.78-25.22,65.63-37.91A38.14,38.14,0,0,0,161,8.73Z"/><path class="cls-3" d="M8.4,10.48,66.07,43.9C72.4,47.56,78.82,51.08,85,55c2.64,1.65,4.56,1.55,7.22,0C116.78,40.6,141.42,26.41,166,12.18c.7-.41,1.44-.74,2.73-1.39V99.44H8.4Z"/><path class="cls-3" d="M16,8.73H161a38.14,38.14,0,0,1-3.42,2.65C135.77,24.07,113.94,36.78,92,49.29c-1.63.93-4.63,1.2-6.16.32C63.29,36.79,40.9,23.73,18.48,10.7A30.29,30.29,0,0,1,16,8.73Z"/></g></g></svg>