<?xml version="1.0" standalone="no"?>
<!DOCTYPE svg PUBLIC "-//W3C//DTD SVG 20010904//EN"
 "http://www.w3.org/TR/2001/REC-SVG-20010904/DTD/svg10.dtd">
<svg version="1.0" xmlns="http://www.w3.org/2000/svg"
 width="1536.000000pt" height="1536.000000pt" viewBox="0 0 1536.000000 1536.000000"
 preserveAspectRatio="xMidYMid meet">
<metadata>
Created by potrace 1.14, written by Peter Selinger 2001-2017
</metadata>
<g transform="translate(0.000000,1536.000000) scale(0.100000,-0.100000)"
fill="#000000" stroke="none">
<path d="M4579 12506 c-2 -2 -51 -7 -109 -10 -58 -4 -118 -9 -135 -11 -16 -2
-52 -6 -80 -10 -27 -3 -61 -7 -75 -10 -14 -2 -44 -7 -67 -10 -95 -13 -91 -13
-208 -35 -100 -19 -110 -21 -120 -24 -5 -1 -28 -6 -50 -11 -22 -4 -44 -10 -50
-14 -5 -3 -21 -7 -35 -9 -85 -10 -528 -158 -700 -233 -14 -6 -38 -17 -55 -24
-168 -73 -379 -181 -502 -255 -36 -22 -69 -40 -74 -40 -5 0 -9 -4 -9 -9 0 -5
-8 -11 -17 -15 -18 -5 -54 -26 -63 -36 -3 -3 -30 -21 -60 -40 -30 -19 -78 -51
-106 -72 -28 -21 -56 -38 -62 -38 -5 0 -12 -4 -14 -9 -1 -4 -43 -39 -93 -76
-96 -74 -95 -72 -140 -111 -16 -14 -47 -39 -69 -57 -108 -90 -321 -298 -431
-421 -38 -43 -79 -88 -90 -100 -33 -37 -92 -109 -140 -172 -24 -32 -55 -72
-67 -88 -78 -100 -298 -436 -298 -456 0 -5 -3 -10 -7 -10 -5 0 -13 -10 -19
-23 -32 -68 -100 -192 -106 -195 -5 -2 -8 -12 -8 -23 0 -10 -4 -19 -10 -19 -5
0 -10 -7 -10 -15 0 -8 -9 -29 -19 -47 -11 -17 -18 -35 -15 -40 3 -4 1 -8 -5
-8 -10 0 -27 -38 -23 -52 1 -5 -3 -8 -8 -8 -6 0 -10 -9 -10 -20 0 -11 -5 -20
-12 -20 -6 0 -8 -3 -5 -6 3 -4 1 -16 -5 -28 -7 -11 -13 -23 -13 -26 -1 -3 -7
-16 -12 -30 -16 -36 -84 -213 -87 -225 -2 -5 -6 -19 -10 -30 -5 -11 -12 -31
-16 -45 -4 -14 -12 -34 -16 -45 -9 -24 -7 -17 -28 -90 -10 -33 -25 -80 -33
-105 -8 -25 -17 -56 -20 -70 -2 -14 -13 -59 -24 -101 -11 -42 -22 -87 -24
-100 -6 -31 -19 -92 -21 -101 -1 -5 -2 -9 -4 -10 -1 -2 -3 -16 -5 -33 -2 -16
-5 -40 -8 -51 -6 -22 -13 -68 -22 -131 -3 -21 -8 -49 -10 -63 -3 -14 -7 -52
-10 -85 -3 -33 -8 -71 -10 -85 -26 -158 -26 -786 0 -970 3 -19 8 -64 11 -100
3 -36 8 -76 10 -90 2 -14 6 -36 8 -50 3 -14 5 -27 6 -30 1 -3 2 -8 1 -12 0 -6
9 -61 23 -133 2 -11 9 -49 16 -85 6 -36 14 -72 17 -80 7 -18 9 -25 16 -65 4
-16 11 -46 16 -65 9 -33 39 -143 44 -165 1 -5 6 -16 10 -22 5 -7 6 -13 2 -13
-3 0 1 -13 10 -30 9 -16 13 -30 11 -30 -3 0 18 -64 46 -142 27 -79 52 -153 55
-165 3 -13 9 -23 14 -23 5 0 9 -7 9 -15 0 -33 223 -506 260 -550 5 -6 7 -15 3
-18 -3 -4 -1 -7 5 -7 7 0 12 -5 12 -11 0 -5 26 -52 57 -102 32 -51 64 -105 72
-120 8 -15 18 -27 23 -27 4 0 8 -5 8 -11 0 -10 53 -91 77 -116 6 -7 21 -29 34
-50 13 -21 25 -40 29 -43 3 -3 18 -23 35 -45 16 -22 35 -46 42 -53 7 -7 13
-16 13 -20 0 -4 16 -24 35 -44 19 -20 35 -39 35 -43 0 -5 87 -106 184 -214 99
-109 337 -337 436 -417 19 -16 39 -34 43 -41 4 -7 13 -13 19 -13 6 0 16 -6 22
-14 32 -39 451 -336 474 -336 5 0 17 -9 27 -20 10 -11 21 -20 25 -20 4 0 45
-22 91 -50 46 -27 89 -50 96 -50 6 0 13 -4 15 -9 3 -9 368 -190 392 -196 6 -1
23 -7 38 -13 15 -6 65 -27 110 -45 46 -19 101 -40 123 -47 22 -7 45 -15 50
-19 6 -3 15 -6 20 -7 6 -1 46 -14 90 -29 44 -15 87 -29 95 -31 8 -2 56 -15
105 -29 50 -14 110 -30 135 -36 25 -6 54 -13 65 -16 11 -2 29 -6 40 -7 11 -2
27 -6 35 -9 8 -3 31 -8 50 -11 19 -2 35 -5 35 -6 0 -1 11 -3 25 -6 14 -2 39
-6 55 -9 17 -3 46 -8 65 -10 19 -3 46 -8 60 -11 14 -4 43 -8 65 -10 37 -3 71
-7 150 -18 195 -27 840 -28 998 0 15 2 51 6 80 9 29 2 70 7 92 11 22 3 54 8
70 9 17 2 30 4 30 5 0 1 11 4 25 5 124 17 364 71 550 124 106 31 368 120 411
141 35 16 37 16 110 -12 41 -16 81 -31 89 -33 8 -2 45 -15 83 -28 37 -13 67
-22 67 -19 0 2 6 0 13 -5 6 -6 26 -14 42 -18 17 -5 36 -10 43 -12 6 -1 20 -5
30 -7 9 -3 18 -5 20 -6 1 -2 5 -3 10 -4 4 -2 27 -8 52 -15 25 -7 52 -15 60
-16 8 -2 15 -4 15 -5 0 -1 7 -3 15 -5 8 -2 47 -11 85 -20 39 -9 80 -18 92 -20
11 -1 29 -6 40 -9 22 -6 79 -17 113 -21 14 -2 25 -4 25 -5 0 -2 24 -7 85 -15
30 -4 64 -8 75 -10 11 -2 44 -6 74 -10 30 -4 61 -8 70 -10 153 -29 917 -28
1086 2 17 3 44 6 60 8 38 3 131 15 159 21 11 2 36 6 56 9 46 7 77 13 98 19 9
3 33 7 52 10 19 3 50 10 67 15 18 5 33 6 33 2 0 -4 10 -8 23 -8 12 -1 58 -9
102 -17 44 -9 103 -19 130 -22 28 -4 52 -9 55 -13 3 -3 19 -6 35 -7 17 0 55
-4 85 -7 102 -13 135 -16 205 -23 109 -11 669 -10 780 1 55 5 115 9 133 10 17
0 32 2 32 5 0 3 12 5 28 6 28 1 105 10 157 19 17 2 44 7 60 9 17 3 40 7 51 10
12 2 39 7 60 10 22 4 46 8 54 11 8 2 26 6 40 9 96 19 225 50 230 56 3 3 10 5
15 5 17 0 189 48 200 55 6 4 26 11 45 15 19 4 41 12 48 17 6 6 12 7 12 3 0 -4
7 -1 17 6 9 8 18 13 20 12 1 -2 4 -3 6 -2 1 0 9 2 17 4 18 4 228 86 285 111
22 10 42 18 45 19 19 4 313 149 380 187 8 4 22 11 30 15 8 4 17 9 20 12 6 7
82 49 117 66 13 5 23 13 23 18 0 4 7 7 15 7 8 0 15 4 15 9 0 5 9 12 20 16 30
9 179 111 345 235 96 72 124 93 149 115 6 6 38 33 71 60 33 28 72 62 87 78 15
15 30 27 33 27 17 0 363 360 461 480 16 19 35 41 41 48 7 7 13 18 13 23 0 5 7
9 16 9 8 0 13 4 10 9 -3 4 12 28 34 52 22 24 40 49 40 55 0 7 7 14 15 18 8 3
15 10 15 16 0 6 6 18 13 25 24 28 34 41 85 117 29 42 52 81 52 86 0 6 7 12 15
16 8 3 15 12 15 21 0 8 5 15 10 15 6 0 10 7 10 15 0 8 5 15 12 15 6 0 8 3 5 7
-4 3 4 20 16 37 13 17 27 38 30 46 4 8 18 33 31 55 13 22 41 72 61 110 21 39
43 73 49 77 6 4 8 8 4 8 -4 0 16 46 45 103 28 56 52 104 52 107 1 3 10 25 21
50 11 25 42 99 68 165 27 66 52 131 58 145 5 14 9 25 9 25 -1 0 10 34 25 75
14 41 27 80 28 85 2 6 13 44 25 85 43 142 52 175 56 195 2 11 4 22 5 25 1 3 3
10 5 15 1 6 3 12 4 15 3 6 6 21 14 65 5 26 11 52 22 105 2 8 4 15 5 15 1 0 3
9 5 20 1 11 6 43 10 70 5 28 9 59 11 70 1 11 3 20 4 20 3 0 7 26 14 85 8 66
14 112 21 165 15 108 20 246 19 520 0 240 -7 480 -15 480 0 0 -2 14 -4 30 -2
17 -6 48 -9 70 -12 84 -16 116 -20 148 -2 17 -7 43 -10 57 -3 14 -8 41 -10 60
-3 19 -10 58 -16 85 -5 28 -12 61 -14 75 -3 14 -5 25 -6 25 -1 0 -3 9 -5 20
-4 22 -4 24 -35 145 -31 124 -95 332 -121 395 -7 17 -13 35 -13 40 -1 10 -25
73 -68 180 -19 47 -28 67 -79 182 -42 94 -144 298 -151 301 -5 2 -8 8 -8 14 0
5 -10 24 -22 41 -13 18 -22 34 -22 37 1 5 -10 24 -53 92 -12 21 -23 40 -23 43
0 2 -7 13 -15 22 -8 10 -16 23 -17 28 -1 6 -28 47 -60 92 -32 45 -58 85 -58
88 0 4 -6 12 -12 19 -7 8 -20 24 -28 36 -54 80 -213 282 -262 332 -10 10 -16
18 -15 18 24 0 -462 480 -545 538 -10 8 -35 29 -56 48 -20 19 -40 34 -43 34
-4 0 -22 14 -40 30 -19 17 -52 42 -74 58 -22 15 -41 30 -43 35 -2 4 -10 7 -18
7 -8 0 -14 3 -14 8 0 4 -18 18 -40 32 -22 14 -40 28 -40 32 0 5 -6 8 -13 8 -7
0 -22 8 -33 18 -23 19 -52 39 -74 49 -8 4 -19 11 -25 15 -23 19 -87 58 -200
121 -66 37 -127 72 -135 77 -8 6 -24 14 -35 19 -11 5 -74 35 -140 68 -66 33
-123 61 -127 62 -4 1 -23 8 -43 17 -19 8 -37 14 -40 14 -3 0 -18 6 -34 14 -16
9 -73 32 -127 51 -121 44 -129 47 -130 43 0 -2 -7 2 -15 9 -8 6 -26 14 -39 17
-14 2 -52 13 -85 24 -33 11 -109 34 -170 50 -152 41 -189 50 -220 57 -11 2
-33 6 -50 10 -16 4 -41 8 -55 10 -14 2 -25 4 -25 5 0 3 -41 10 -72 13 -18 1
-33 5 -33 9 0 3 -8 5 -17 4 -9 -2 -37 1 -62 6 -25 5 -64 11 -86 13 -22 3 -58
7 -80 10 -172 23 -286 29 -565 29 -252 0 -391 -5 -510 -20 -25 -3 -58 -7 -75
-9 -16 -2 -52 -6 -80 -10 -27 -4 -62 -8 -77 -9 -16 0 -28 -4 -28 -7 0 -3 -12
-6 -27 -7 -34 -2 -88 -9 -88 -12 0 -1 -9 -3 -20 -5 -58 -9 -101 -18 -121 -25
-12 -5 -24 -7 -27 -4 -2 3 -15 7 -28 9 -13 3 -35 7 -49 10 -64 14 -114 23
-165 30 -22 3 -62 10 -90 15 -59 10 -127 19 -295 36 -106 11 -737 12 -845 1
-44 -4 -98 -10 -120 -12 -22 -2 -53 -6 -70 -9 -16 -2 -54 -8 -84 -11 -30 -4
-63 -9 -75 -11 -68 -13 -144 -27 -166 -30 -48 -6 -85 -15 -94 -24 -5 -5 -14
-6 -20 -4 -7 3 -73 -11 -147 -31 -74 -20 -141 -38 -149 -40 -8 -2 -46 -13 -85
-25 -38 -13 -77 -24 -85 -25 -8 -2 -16 -4 -17 -5 -2 -2 -6 -3 -10 -5 -9 -2
-37 -12 -68 -25 -40 -15 -161 -59 -183 -65 -20 -6 -82 11 -167 46 -51 20 -132
49 -155 54 -8 2 -16 4 -17 5 -2 2 -6 3 -10 4 -45 12 -101 28 -113 33 -8 3 -20
7 -26 8 -6 2 -36 10 -66 19 -30 8 -63 17 -74 19 -10 2 -37 9 -59 15 -22 6 -57
13 -79 16 -21 4 -42 8 -46 11 -6 4 -19 7 -125 25 -27 5 -61 12 -75 14 -14 3
-45 7 -70 10 -25 2 -56 7 -70 10 -14 4 -45 8 -70 11 -104 9 -167 16 -205 21
-43 6 -631 15 -636 10z m561 -960 c30 -4 78 -9 105 -12 127 -14 199 -25 207
-33 5 -4 -13 -23 -40 -44 -26 -20 -59 -46 -73 -59 -15 -13 -51 -43 -80 -68
-152 -129 -348 -326 -484 -485 -27 -32 -58 -67 -67 -77 -10 -10 -16 -18 -13
-18 2 0 -8 -13 -23 -29 -31 -34 -37 -41 -77 -96 -17 -22 -32 -42 -35 -45 -4
-3 -26 -34 -51 -70 -24 -36 -47 -66 -51 -68 -5 -2 -8 -10 -8 -18 0 -8 -5 -14
-10 -14 -6 0 -14 -8 -17 -17 -7 -17 -65 -110 -82 -129 -5 -6 -19 -29 -30 -50
-12 -21 -27 -48 -34 -58 -41 -66 -77 -126 -77 -131 0 -3 -11 -23 -25 -45 -14
-22 -23 -40 -20 -40 3 0 -5 -17 -18 -37 -21 -34 -59 -110 -62 -123 -1 -3 -18
-41 -39 -85 -52 -111 -70 -152 -91 -210 -10 -27 -22 -55 -27 -61 -4 -6 -9 -19
-11 -30 -2 -10 -7 -26 -10 -34 -13 -30 -30 -75 -32 -80 -7 -26 -18 -50 -23
-51 -31 -7 -2555 -3 -2559 4 -12 19 234 479 313 584 13 17 24 35 24 38 0 4 6
13 12 20 7 8 24 30 38 50 65 94 199 261 252 317 16 16 28 31 28 33 0 8 233
239 309 305 40 36 84 75 98 88 14 12 29 22 32 22 3 0 20 12 36 28 44 40 130
103 257 187 62 41 118 79 125 85 7 5 15 10 18 10 3 0 36 18 73 41 82 49 390
202 409 202 7 0 13 4 13 9 0 4 8 8 18 8 10 0 23 5 30 12 7 7 12 9 12 5 0 -3
24 5 53 18 28 14 60 25 70 25 9 0 17 5 17 12 0 6 3 9 6 5 4 -3 23 0 43 8 63
24 197 64 301 91 33 9 196 46 215 49 11 2 36 6 55 9 19 4 51 9 70 13 19 3 43
7 54 9 10 2 44 6 75 9 31 4 72 8 91 11 19 2 78 7 130 10 52 4 96 7 98 8 5 5
430 -2 482 -8z m6405 -125 c6 -3 18 -6 28 -7 9 -1 19 -3 22 -4 3 -1 8 -3 13
-5 4 -1 14 -5 22 -8 8 -4 24 -8 35 -10 11 -2 27 -7 35 -10 8 -3 35 -12 60 -21
25 -8 77 -26 115 -41 39 -15 75 -28 80 -29 6 -2 21 -8 35 -14 14 -6 59 -25
100 -43 175 -73 519 -263 597 -329 7 -5 15 -10 18 -10 4 0 23 -12 43 -27 20
-16 41 -31 47 -35 15 -11 205 -157 218 -168 85 -69 337 -314 417 -405 35 -40
126 -148 145 -173 5 -7 15 -18 20 -25 41 -49 195 -270 195 -280 0 -4 9 -17 20
-29 11 -12 20 -28 20 -35 0 -7 5 -13 10 -13 6 0 10 -4 10 -9 0 -5 18 -39 40
-75 22 -36 40 -70 40 -76 0 -5 3 -10 8 -10 4 0 16 -21 26 -48 11 -26 28 -58
38 -71 10 -13 18 -28 18 -33 0 -5 15 -41 34 -81 30 -62 55 -119 61 -137 1 -3
7 -18 13 -33 7 -15 15 -39 18 -52 3 -14 10 -25 15 -25 5 0 8 -3 7 -7 -1 -5 17
-64 39 -133 42 -129 71 -223 77 -256 6 -29 26 -107 33 -124 3 -8 6 -31 8 -51
1 -20 5 -41 8 -46 3 -4 8 -27 11 -49 4 -22 9 -51 11 -64 8 -37 13 -69 21 -130
22 -172 27 -264 27 -505 0 -250 -6 -362 -28 -510 -2 -16 -7 -52 -11 -80 -3
-27 -8 -59 -10 -70 -17 -90 -29 -147 -57 -260 -17 -71 -30 -133 -29 -137 1 -5
-3 -8 -9 -8 -5 0 -8 -4 -5 -8 3 -5 -9 -49 -25 -98 -17 -49 -32 -93 -33 -99 -4
-21 -47 -131 -57 -149 -8 -14 -8 -16 3 -10 7 4 5 -1 -4 -12 -9 -10 -20 -31
-23 -47 -4 -15 -11 -30 -16 -33 -5 -3 -7 -10 -4 -15 4 -5 1 -9 -4 -9 -6 0 -10
-3 -9 -7 1 -5 -4 -21 -11 -37 -16 -39 -115 -240 -121 -246 -3 -3 -13 -21 -23
-40 -39 -75 -50 -95 -59 -101 -6 -3 -10 -10 -10 -15 -1 -5 -11 -25 -23 -44
-12 -19 -30 -50 -40 -67 -11 -18 -23 -33 -27 -33 -4 0 -8 -7 -8 -15 0 -8 -4
-15 -10 -15 -5 0 -10 -5 -10 -10 0 -10 -144 -213 -178 -250 -9 -10 -21 -25
-27 -32 -58 -79 -412 -448 -430 -448 -3 0 -16 -10 -28 -23 -12 -13 -44 -41
-72 -62 -27 -22 -55 -44 -61 -50 -40 -35 -70 -60 -74 -60 -3 0 -39 -25 -80
-56 -41 -30 -93 -66 -115 -79 -22 -13 -42 -27 -45 -30 -11 -15 -237 -143 -357
-204 -130 -65 -362 -166 -382 -166 -6 0 -19 -5 -29 -10 -44 -26 -254 -91 -294
-91 -10 0 -18 -4 -18 -10 0 -5 -10 -9 -23 -9 -13 0 -28 -5 -35 -12 -8 -8 -12
-8 -12 -1 0 10 23 31 119 111 82 68 249 230 349 338 41 43 89 95 108 115 19
20 34 41 34 48 0 6 7 11 15 11 8 0 15 4 15 8 0 10 23 39 73 94 20 23 37 44 37
48 0 4 10 18 23 32 23 27 32 39 109 147 26 36 51 71 55 76 15 19 119 180 126
195 4 8 15 27 25 42 62 95 232 420 286 548 10 25 29 69 42 98 13 29 25 61 26
70 2 9 6 19 9 22 7 6 85 222 106 295 1 6 19 66 39 135 20 69 38 132 41 140 3
8 8 31 10 50 2 19 7 39 12 45 4 5 8 24 9 40 1 17 7 32 12 33 6 2 8 8 5 12 -3
5 3 53 14 107 11 54 22 118 26 143 20 133 31 220 30 253 0 20 2 37 5 37 3 0 6
21 8 48 1 26 4 75 6 110 2 34 6 65 9 69 4 3 2 14 -4 24 -5 11 -6 19 -2 19 10
0 8 357 -2 495 -4 55 -8 119 -9 142 0 24 -3 43 -6 43 -3 0 -5 15 -5 33 -1 44
-25 236 -40 307 -8 38 -26 133 -30 155 -4 24 -11 55 -25 116 -6 26 -13 55 -15
65 -2 11 -4 19 -5 19 -2 0 -10 36 -12 58 -1 9 -5 17 -8 17 -4 0 -7 6 -8 13 -3
39 -7 57 -12 57 -3 0 -7 8 -8 18 -2 21 -10 57 -12 57 -1 0 -3 9 -5 20 -2 10
-8 28 -13 40 -5 11 -15 38 -21 60 -34 111 -89 254 -135 357 -14 31 -26 59 -26
61 0 3 -17 40 -37 83 -20 44 -36 82 -35 87 1 4 -2 7 -6 7 -5 0 -15 18 -22 40
-7 22 -18 40 -23 40 -6 0 -7 3 -4 7 4 3 3 11 -2 17 -5 6 -26 43 -47 81 -64
121 -161 284 -173 295 -3 3 -15 22 -25 43 -11 20 -23 37 -28 37 -5 0 -6 5 -3
10 3 6 2 10 -3 10 -9 0 -62 76 -62 90 0 5 -3 10 -8 12 -4 2 -32 37 -62 78 -30
41 -57 77 -60 80 -3 3 -17 21 -31 40 -15 19 -36 46 -48 60 -11 14 -33 40 -48
59 -16 19 -41 49 -58 67 -16 18 -59 65 -95 105 -92 102 -306 310 -377 366 -15
13 -50 43 -78 68 -48 43 -49 45 -20 39 17 -4 35 -9 40 -13z m-10394 -3155 c15
9 229 10 229 1 0 -5 5 -5 10 -2 15 10 230 11 230 2 0 -5 5 -5 10 -2 17 11 230
11 230 1 0 -6 4 -6 10 0 7 7 29 8 55 4 25 -4 47 -5 50 -2 4 5 278 5 301 1 5
-1 14 0 19 1 11 2 288 1 301 -1 5 -1 14 0 19 1 11 2 288 1 301 -1 5 -1 14 -1
19 0 31 6 325 5 325 -1 0 -4 6 -5 13 -2 26 9 187 9 187 -1 0 -6 3 -6 9 0 6 6
44 9 86 7 l76 -4 -5 -41 c-15 -113 -28 -281 -27 -342 0 -11 -1 -108 -2 -215
-2 -107 1 -203 6 -214 7 -14 6 -16 -4 -11 -8 6 -10 4 -4 -5 4 -7 9 -38 10 -69
3 -63 14 -191 20 -236 3 -16 5 -47 6 -68 1 -21 6 -40 11 -43 4 -3 6 -9 3 -14
-3 -4 -1 -29 4 -54 l8 -46 -46 -1 c-25 0 -616 -1 -1314 -2 -839 -1 -1267 1
-1268 8 0 6 -2 17 -4 25 -3 17 -22 118 -30 170 -4 19 -8 58 -10 85 -2 28 -5
50 -5 50 -4 0 -12 90 -13 152 -1 40 -4 73 -7 73 -9 0 -6 394 3 408 5 7 4 12
-3 12 -6 0 -9 4 -6 9 3 5 8 42 11 82 8 114 23 240 31 271 4 14 19 18 72 20 37
2 69 0 70 -5 2 -4 8 -5 13 -1z m2756 -2320 c13 -4 22 -10 22 -14 -1 -4 0 -10
1 -14 1 -5 3 -11 4 -15 3 -18 82 -202 103 -240 13 -24 21 -43 18 -43 -4 0 3
-13 15 -30 12 -16 19 -30 16 -30 -3 0 8 -24 23 -52 83 -158 134 -248 142 -254
5 -3 7 -10 4 -15 -4 -5 -1 -9 4 -9 6 0 11 -5 11 -11 0 -23 183 -296 332 -494
12 -15 112 -139 123 -151 5 -7 28 -33 50 -59 120 -142 343 -365 485 -485 29
-25 65 -56 81 -70 15 -14 40 -35 56 -47 15 -12 38 -30 50 -41 l23 -19 -53 -7
c-28 -4 -72 -9 -97 -11 -25 -3 -58 -7 -75 -10 -174 -25 -629 -25 -835 0 -73 9
-116 15 -142 20 -16 3 -40 7 -55 9 -16 2 -57 9 -93 16 -36 7 -74 14 -85 15
-31 4 -262 64 -335 87 -62 19 -268 91 -300 105 -8 3 -17 7 -20 8 -143 49 -615
298 -642 339 -4 6 -8 7 -8 2 0 -4 -15 3 -34 18 -19 14 -37 26 -41 26 -3 0 -11
5 -18 10 -21 18 -84 64 -108 80 -12 8 -31 23 -41 33 -10 9 -20 17 -23 17 -7 0
-100 76 -195 159 -56 49 -281 272 -348 346 -13 14 -62 74 -109 133 -47 59 -90
109 -95 110 -4 2 -8 9 -8 16 0 7 -8 21 -18 32 -17 19 -146 209 -168 249 -6 11
-31 54 -56 96 -25 41 -49 85 -52 97 -4 12 -12 22 -17 22 -6 0 -8 4 -4 9 3 5
-1 15 -8 23 -19 18 -28 46 -16 50 20 7 2515 1 2536 -6z"/>
</g>
</svg>
