<svg xmlns="http://www.w3.org/2000/svg" viewBox="0 0 119.61 117.92"><g id="Layer_2" data-name="Layer 2"><g id="Layer_1-2" data-name="Layer 1"><path d="M44.61,117.83V35.9H65.43c.39,3.67.76,7.3,1.2,11.53.71-.92,1.1-1.42,1.48-1.93C77.45,32.82,96.78,30,108.59,39.68a27.66,27.66,0,0,1,9.72,17.61,112.94,112.94,0,0,1,1.21,16.65c.16,14.08,0,28.17,0,42.26v1.65H95.19c0-.77-.1-1.56-.11-2.36,0-14.27.08-28.55-.07-42.82a40.13,40.13,0,0,0-1.41-9.92,10.08,10.08,0,0,0-8.21-7.84c-4.76-.86-9,.32-12.17,4.12A17,17,0,0,0,69.3,70.47q0,22.47,0,44.92v2.44Z"/><path d="M25,117.92H.81V36H25Z"/><path d="M0,13C-.06,5.41,5.13.1,12.68,0c7.74-.1,13.2,5.3,13.25,13.08.05,7.23-5.51,12.61-13.07,12.67S.06,20.55,0,13Z"/></g></g></svg>